# Blender 5.2.0 LTS
# www.blender.org
mtllib DarkMoonGreatsword.mtl
o Cube
v 1.098566 0.738216 -0.234332
v 0.593102 0.896356 0.414775
v 1.059891 0.773282 -0.277111
v 0.523967 0.939397 0.343561
v 1.209115 0.701772 -0.457017
v 0.596385 0.907966 0.414502
v 0.516430 0.918045 0.413349
v 0.266689 0.993886 0.634440
v 0.529969 0.960687 0.343102
v 0.601611 0.926424 0.414081
v 0.514101 0.940276 0.405527
v 0.491102 0.953466 0.382712
v 0.630252 0.887524 0.488329
v 0.598488 0.902378 0.526205
v 0.631590 0.892794 0.488341
v 0.597205 0.897761 0.526312
v 0.627000 0.905536 0.478670
v 0.595420 0.913245 0.514716
v 0.560054 0.906593 0.452758
v 0.567976 0.934758 0.452021
v 0.489750 0.948647 0.382808
v 0.491226 0.925272 0.417108
v 0.488896 0.947498 0.409286
v 0.287682 0.988373 0.653308
v 0.476409 0.952776 0.398257
v 0.287153 1.010615 0.646505
v 0.273026 1.016323 0.633945
v 1.046735 0.726847 -0.276043
v 0.510812 0.892961 0.344630
v 0.589807 0.884749 0.415037
v 0.504755 0.871688 0.345150
v 0.584575 0.866293 0.415465
v 0.502698 0.900025 0.406453
v 0.475924 0.899892 0.383945
v 0.595875 0.893156 0.526418
v 0.628629 0.882341 0.488581
v 0.617923 0.873498 0.479407
v 0.587427 0.885033 0.515365
v 0.552025 0.878453 0.453317
v 0.477301 0.904704 0.383820
v 0.477495 0.907257 0.410212
v 0.463963 0.908844 0.399269
v 0.275489 0.969443 0.647452
v 0.260316 0.971460 0.634977
v 1.008060 0.761913 -0.318822
v 0.441677 0.936002 0.273415
v 0.444972 0.947609 0.273154
v 0.451273 0.935104 0.352523
v 0.450197 0.966067 0.272732
v 0.464874 0.953165 0.359571
v 0.367357 0.956355 0.242909
v 0.335896 0.971130 0.281068
v 0.368726 0.961617 0.242950
v 0.334587 0.966519 0.281151
v 0.381615 0.969783 0.249596
v 0.349982 0.977505 0.285592
v 0.408907 0.946166 0.311658
v 0.416974 0.974294 0.311056
v 0.450386 0.935964 0.378982
v 0.463985 0.954020 0.386031
v 0.246394 0.999183 0.614764
v 0.258961 1.017997 0.620186
v 0.438394 0.924392 0.273688
v 0.433162 0.905936 0.274116
v 0.453471 0.912913 0.360498
v 0.333284 0.961908 0.281281
v 0.365765 0.951164 0.243190
v 0.372539 0.937745 0.250333
v 0.341990 0.949294 0.286242
v 0.401022 0.917989 0.312352
v 0.452584 0.913779 0.386957
v 0.247297 0.976824 0.621134
vn 0.8890 -0.1572 -0.4301
vn 0.6405 -0.1985 -0.7418
vn 0.5682 0.8092 0.1496
vn 0.2343 0.3445 0.9091
vn 0.6408 -0.1974 -0.7419
vn 0.7166 -0.1836 0.6729
vn -0.8523 0.2497 0.4597
vn 0.3865 0.9111 0.1431
vn 0.8551 -0.2412 -0.4590
vn 0.1903 0.9679 0.1640
vn 0.6628 0.6075 0.4379
vn -0.6285 0.1975 0.7523
vn -0.6283 0.2033 0.7509
vn 0.7679 0.2442 0.5923
vn 0.3055 0.9508 0.0511
vn -0.6157 0.2043 0.7610
vn 0.3463 0.9370 0.0457
vn 0.8342 -0.3506 -0.4256
vn 0.0614 -0.9797 0.1908
vn 0.0299 -0.3771 0.9257
vn 0.6402 -0.1996 -0.7418
vn 0.7145 -0.1909 0.6731
vn -0.8510 0.2540 0.4596
vn -0.1468 -0.9714 0.1864
vn 0.8490 -0.2627 -0.4585
vn -0.3434 -0.9160 0.2074
vn 0.2511 -0.8455 0.4713
vn -0.6296 0.1935 0.7524
vn -0.6325 0.1885 0.7513
vn 0.5330 -0.5850 0.6113
vn -0.2377 -0.9666 0.0952
vn -0.6222 0.1814 0.7615
vn -0.1958 -0.9765 0.0897
vn 0.3440 -0.0145 -0.9389
vn 0.0568 0.9431 -0.3277
vn -0.7892 0.6124 -0.0464
vn 0.6409 -0.1975 -0.7418
vn -0.7193 0.1924 -0.6675
vn -0.3487 0.1178 0.9298
vn 0.0963 0.9871 -0.1278
vn 0.3502 -0.1090 -0.9303
vn 0.0975 0.9922 0.0774
vn -0.2779 0.8538 -0.4403
vn -0.6513 0.2035 0.7310
vn -0.6484 0.2086 0.7322
vn -0.5278 0.5834 -0.6173
vn 0.1980 0.9790 -0.0492
vn -0.6582 0.2155 0.7214
vn 0.1982 0.9758 -0.0925
vn 0.2892 -0.2080 -0.9344
vn -0.4500 -0.8458 -0.2865
vn -0.9936 -0.1091 -0.0297
vn -0.7214 0.1851 -0.6674
vn -0.3474 0.1222 0.9297
vn -0.4371 -0.8954 -0.0845
vn 0.3441 -0.1305 -0.9298
vn -0.4362 -0.8917 0.1208
vn -0.6895 -0.5992 -0.4068
vn -0.6524 0.1995 0.7311
vn -0.6526 0.1937 0.7325
vn -0.7627 -0.2457 -0.5982
vn -0.3452 -0.9385 -0.0051
vn -0.6647 0.1925 0.7219
vn -0.3439 -0.9378 -0.0485
vn -0.4552 -0.8743 -0.1685
vn 0.0687 0.9751 -0.2111
vn 0.4642 0.8715 0.1581
vn -0.0597 -0.9778 0.2007
vt 0.666993 0.747110
vt 0.673951 0.755402
vt 0.644635 0.784888
vt 0.645696 0.775735
vt 0.678324 0.760621
vt 0.714796 0.712241
vt 0.185623 0.131482
vt 0.157607 0.158365
vt 0.057092 0.054040
vt 0.903015 0.896972
vt 0.894810 0.905458
vt 0.886589 0.897432
vt 0.894792 0.888948
vt 0.706775 0.702678
vt 0.760621 0.702166
vt 0.757556 0.702278
vt 0.757556 0.673292
vt 0.760260 0.673284
vt 0.827398 0.838109
vt 0.838469 0.827034
vt 0.860596 0.859756
vt 0.861455 0.868785
vt 0.859482 0.870739
vt 0.796849 0.676347
vt 0.772217 0.646171
vt 0.820873 0.624135
vt 0.844326 0.652488
vt 0.646586 0.787253
vt 0.712223 0.699628
vt 0.738882 0.730217
vt 0.832001 0.621497
vt 0.856524 0.651567
vt 0.803127 0.813424
vt 0.806295 0.801207
vt 0.793190 0.786293
vt 0.795258 0.784260
vt 0.758167 0.772054
vt 0.766720 0.763530
vt 0.732279 0.740299
vt 0.751231 0.721278
vt 0.752958 0.741920
vt 0.743662 0.751940
vt 0.948360 0.966117
vt 0.946787 0.950008
vt 0.959304 0.953957
vt 0.961454 0.964838
vt 0.927854 0.918277
vt 0.917289 0.929546
vt 0.689663 0.774127
vt 0.657774 0.790130
vt 0.648576 0.789584
vt 0.682704 0.765834
vt 0.732302 0.733105
vt 0.131689 0.183652
vt 0.057025 0.053831
vt 0.158244 0.157057
vt 0.886523 0.913865
vt 0.878304 0.905836
vt 0.740328 0.742665
vt 0.754490 0.702166
vt 0.754851 0.673284
vt 0.857494 0.872679
vt 0.848481 0.871668
vt 0.817651 0.847108
vt 0.675044 0.776301
vt 0.648418 0.823955
vt 0.624265 0.795079
vt 0.649282 0.745894
vt 0.714235 0.697053
vt 0.740800 0.728765
vt 0.646083 0.836590
vt 0.620471 0.806245
vt 0.792371 0.814502
vt 0.775613 0.803181
vt 0.777681 0.801147
vt 0.749851 0.780809
vt 0.732115 0.740337
vt 0.741630 0.753697
vt 0.733614 0.761411
vt 0.712574 0.759478
vt 0.920802 0.932881
vt 0.911496 0.941884
vt 0.757436 0.671219
vt 0.792270 0.652745
vt 0.801651 0.653137
vt 0.764394 0.679512
vt 0.768774 0.684725
vt 0.132156 0.184252
vt 0.770444 0.759025
vt 0.778347 0.767364
vt 0.769744 0.775442
vt 0.761839 0.767105
vt 0.677718 0.767602
vt 0.678078 0.738719
vt 0.680783 0.738728
vt 0.680783 0.767714
vt 0.742004 0.751260
vt 0.711111 0.719841
vt 0.713099 0.717901
vt 0.721931 0.718729
vt 0.754134 0.739415
vt 0.673722 0.778360
vt 0.648276 0.824129
vt 0.624866 0.795740
vt 0.648757 0.748460
vt 0.803620 0.655486
vt 0.647193 0.833790
vt 0.622449 0.803903
vt 0.766315 0.775986
vt 0.779460 0.772067
vt 0.901879 0.897256
vt 0.893231 0.905683
vt 0.733688 0.760889
vt 0.713150 0.758763
vt 0.961454 0.975978
vt 0.949936 0.982258
vt 0.906045 0.939745
vt 0.780106 0.698236
vt 0.773147 0.689944
vt 0.805591 0.657833
vt 0.804349 0.667139
vt 0.185355 0.131030
vt 0.753312 0.775268
vt 0.761220 0.783603
vt 0.683848 0.767602
vt 0.683488 0.738719
vt 0.729955 0.763188
vt 0.709817 0.730641
vt 0.709138 0.721796
vt 0.803974 0.676530
vt 0.774329 0.649895
vt 0.822477 0.620893
vt 0.850639 0.645876
vt 0.836425 0.618452
vt 0.861811 0.648986
vt 0.762175 0.789062
vt 0.884356 0.913871
vt 0.751258 0.720796
vt 0.750960 0.743452
vt 0.931421 0.921346
vt 0.552546 0.469373
vt 0.507373 0.513111
vt 0.507766 0.515507
vt 0.464321 0.559154
vt 0.553776 0.470865
vt 0.462757 0.557415
s 0
usemtl Material
f 10/1/1 17/4/1 15/3/1 6/2/1
f 2/5/2 4/6/2 6/2/2
f 1/7/3 5/9/3 3/8/3
f 11/10/4 23/13/4 22/12/4 7/11/4
f 4/6/5 9/14/5 10/1/5 6/2/5
f 15/15/6 14/18/6 16/17/6 13/16/6
f 19/19/7 16/23/7 14/22/7 18/21/7 20/20/7
f 20/24/8 18/27/8 17/26/8 10/25/8
f 6/2/9 15/3/9 13/28/9 2/5/9
f 9/29/10 12/30/10 20/24/10 10/25/10
f 17/26/11 18/27/11 14/32/11 15/31/11
f 7/33/12 19/19/12 20/20/12 11/34/12
f 11/34/13 20/20/13 12/36/13 21/35/13
f 23/13/14 26/38/14 24/37/14 22/12/14
f 21/39/15 25/42/15 23/41/15 11/40/15
f 27/43/16 8/46/16 24/45/16 26/44/16
f 25/42/17 27/48/17 26/47/17 23/41/17
f 32/49/18 30/52/18 36/51/18 37/50/18
f 2/5/2 30/52/2 29/53/2
f 1/54/19 28/56/19 5/55/19
f 33/57/20 7/11/20 22/12/20 41/58/20
f 29/53/21 30/52/21 32/49/21 31/59/21
f 36/60/22 13/16/22 16/17/22 35/61/22
f 19/19/23 39/64/23 38/63/23 35/62/23 16/23/23
f 39/65/24 32/68/24 37/67/24 38/66/24
f 30/52/25 2/5/25 13/28/25 36/51/25
f 31/69/26 32/68/26 39/65/26 34/70/26
f 37/67/27 36/72/27 35/71/27 38/66/27
f 7/33/28 33/73/28 39/64/28 19/19/28
f 33/73/29 40/75/29 34/74/29 39/64/29
f 41/58/30 22/12/30 24/37/30 43/76/30
f 40/77/31 33/80/31 41/79/31 42/78/31
f 44/45/32 43/46/32 24/45/32 8/46/32
f 42/78/33 41/79/33 43/82/33 44/81/33
f 49/83/34 47/86/34 53/85/34 55/84/34
f 46/87/2 47/86/2 4/6/2
f 45/88/35 3/8/35 5/9/35
f 50/89/36 48/92/36 59/91/36 60/90/36
f 4/6/37 47/86/37 49/83/37 9/14/37
f 53/93/38 51/96/38 54/95/38 52/94/38
f 57/97/39 58/101/39 56/100/39 52/99/39 54/98/39
f 58/102/40 49/105/40 55/104/40 56/103/40
f 47/86/41 46/87/41 51/106/41 53/85/41
f 9/29/42 49/105/42 58/102/42 12/30/42
f 55/104/43 53/108/43 52/107/43 56/103/43
f 48/109/44 50/110/44 58/101/44 57/97/44
f 50/110/45 21/35/45 12/36/45 58/101/45
f 60/90/46 59/91/46 61/112/46 62/111/46
f 21/39/47 50/114/47 60/113/47 25/42/47
f 27/43/48 62/116/48 61/115/48 8/46/48
f 25/42/49 60/113/49 62/117/49 27/48/49
f 64/118/50 68/121/50 67/120/50 63/119/50
f 46/87/2 29/53/2 63/119/2
f 45/122/51 5/55/51 28/56/51
f 65/123/52 71/124/52 59/91/52 48/92/52
f 29/53/21 31/59/21 64/118/21 63/119/21
f 67/125/53 66/126/53 54/95/53 51/96/53
f 57/97/54 54/98/54 66/129/54 69/128/54 70/127/54
f 70/130/55 69/133/55 68/132/55 64/131/55
f 63/119/56 67/120/56 51/106/56 46/87/56
f 31/69/57 34/70/57 70/130/57 64/131/57
f 68/132/58 69/133/58 66/135/58 67/134/58
f 48/109/59 57/97/59 70/127/59 65/136/59
f 65/136/60 70/127/60 34/74/60 40/75/60
f 71/124/61 72/137/61 61/112/61 59/91/61
f 40/77/62 42/78/62 71/139/62 65/138/62
f 44/45/63 8/46/63 61/115/63 72/46/63
f 42/78/64 44/81/64 72/140/64 71/139/64
f 45/122/65 28/56/65 29/142/65 46/141/65
f 45/88/66 46/144/66 4/143/66 3/8/66
f 1/7/67 3/8/67 4/143/67 2/145/67
f 1/54/68 2/146/68 29/142/68 28/56/68
